<svg xmlns="http://www.w3.org/2000/svg" xmlns:xlink="http://www.w3.org/1999/xlink" viewBox="0 0 1200 628"><defs><style>.cls-1{fill:none;}.cls-2{fill:#faf9f6;}.cls-3{fill:#ffb234;}.cls-4{fill:#e39920;}.cls-5{fill:#ffc970;}.cls-6{fill:#2e0e47;}.cls-7{clip-path:url(#clip-path);}.cls-8{fill:#210a33;}.cls-9{fill:#441569;}.cls-10{fill:#10051a;}.cls-11{fill:#b29fed;}.cls-12{fill:#fffeff;}.cls-13{fill:#ffe3ff;}.cls-14{fill:#ff3843;}.cls-15{fill:#9c2229;}.cls-16{fill:#4ec8fb;}.cls-17{fill:#3b98bf;}.cls-18{fill:#7dd8ff;}.cls-19{fill:#491673;}.cls-20{fill:#ffe5ba;}.cls-21{clip-path:url(#clip-path-2);}.cls-22{fill:#c22a33;}.cls-23{fill:#ff666f;}.cls-24{fill:#ff8416;}.cls-25{fill:#cc6a12;}.cls-26{fill:#ffa24f;}.cls-27{fill:#00be92;}.cls-28{fill:#00d1a1;}</style><clipPath id="clip-path"><path class="cls-1" d="M882,347.22a5.86,5.86,0,0,0-5.87-5.86,5.87,5.87,0,1,0,0-11.74H802.75a5.87,5.87,0,0,0,0,11.74,5.87,5.87,0,1,0,0,11.73,5.87,5.87,0,0,0,0,11.74h73.36a5.87,5.87,0,1,0,0-11.74A5.87,5.87,0,0,0,882,347.22Z"/></clipPath><clipPath id="clip-path-2"><path class="cls-1" d="M1018.21,407.29l-5.15-14.9-1,.33a7.9,7.9,0,0,0-4.88,10h0a7.89,7.89,0,0,0,10,4.87Z"/></clipPath></defs><g id="OBJECTS"><rect class="cls-2" width="1200" height="628"/><path class="cls-3" d="M921.92,214.76a82.49,82.49,0,0,0-85-82.46c-42.89,1.28-78.1,36-79.9,78.9a82.1,82.1,0,0,0,19.89,57.33c15.55,18.06,24.56,40.83,24.56,64.67v3.64h75.93v-3.63c0-23.9,9.13-46.68,24.69-64.82A82.08,82.08,0,0,0,921.92,214.76Z"/><path class="cls-4" d="M836.91,132.3A81.33,81.33,0,0,0,822.78,134,82.48,82.48,0,0,1,871,268.84c-15.56,18.15-24.69,40.92-24.69,64.83v3.17h31.12v-3.63c0-23.9,9.13-46.68,24.69-64.82A82.47,82.47,0,0,0,836.91,132.3Z"/><ellipse class="cls-5" cx="802.65" cy="200.54" rx="45.73" ry="33.29" transform="translate(314.46 868.47) rotate(-67.86)"/><path class="cls-1" d="M801.31,157.84s-43.5,21.22-27.73,78.71"/><path class="cls-1" d="M819.28,329.62c1.24-12.88,1.74-25.82,2.22-38.75.46-12.5,2.28-25.83.21-38.24-1.79-10.66-9.84-24.66-22.64-22.72a10.17,10.17,0,0,0-5.84,17.19c5.58,5.68,15.87,7.48,23.46,6.51,9.42-1.2,18.41-5.81,25.48-12.05,3.63-3.21,6.84-7.55,6.59-12.38a10.48,10.48,0,0,0-9.89-9.6c-11.18-.23-11.61,12.3-6.35,19.11,8.56,11.08,26.76,18.08,39.63,10.11,4.11-2.54,7.16-7.12,7-12s-4.28-9.46-9.11-9.44c-11.94.06-11.37,15.75-10.19,23.68,3.89,26,3.55,52.38,2.19,78.53"/><path class="cls-6" d="M882,347.22a5.86,5.86,0,0,0-5.87-5.86,5.87,5.87,0,1,0,0-11.74H802.75a5.87,5.87,0,0,0,0,11.74,5.87,5.87,0,1,0,0,11.73,5.87,5.87,0,0,0,0,11.74h73.36a5.87,5.87,0,1,0,0-11.74A5.87,5.87,0,0,0,882,347.22Z"/><g class="cls-7"><path class="cls-8" d="M877.18,362.2c-2.57,1.37-5.79,1.1-8.6,1.23-21.93,1-43.9,1.19-65.85,1.4l81.4.82-.75-23.93-.17-10.41c-.49,1.88-2.28,4.71-7.88,7.94-10,5.77-72.58,2.11-72.58,2.11,27.83,5.27,69.83.91,73,1.46s6,6,.55,7.71-73.54,2.56-73.54,2.56,37,1.85,67.82.19c2.7-.14,6,.51,8,2.59S879.43,361,877.18,362.2Z"/><path class="cls-8" d="M883.17,328.93l0,2.38A3.68,3.68,0,0,0,883.17,328.93Z"/></g><path class="cls-9" d="M802.65,342.46s22.93,6,72,1.19C874.64,343.65,828.88,352.18,802.65,342.46Z"/><path class="cls-9" d="M871.34,354.29s-45.12,2.11-67.59-.46C803.75,353.83,829.16,360.43,871.34,354.29Z"/><path class="cls-9" d="M802.65,331.27a611,611,0,0,0,74.19-.28A271.88,271.88,0,0,1,802.65,331.27Z"/><path class="cls-8" d="M841.59,364.83H808.3l5.76,7.53a4.66,4.66,0,0,0,3.69,1.83H861.1a4.65,4.65,0,0,0,3.69-1.83l5.76-7.53Z"/><polygon class="cls-10" points="808.3 364.83 870.55 364.83 869.3 366.47 809.55 366.47 808.3 364.83"/><ellipse class="cls-10" cx="839.43" cy="371.85" rx="20.15" ry="0.69"/><path class="cls-11" d="M1101.76,517.78c0,15.08-117.45,27.3-262.33,27.3s-262.34-12.22-262.34-27.3,117.45-27.3,262.34-27.3S1101.76,502.7,1101.76,517.78Z"/><path class="cls-12" d="M1048.47,467.85c-53.63-2.34-96.1-27.11-114.32-39.63a74.72,74.72,0,0,0-40.23-13.48c-53.13-1.38-54.49,60.28-54.49,60.62,0-.34-1.37-62-54.5-60.62a74.68,74.68,0,0,0-40.22,13.48c-18.22,12.52-60.69,37.29-114.33,39.63l-12.27,45.68,221.32-.13h0l221.31.13Z"/><path class="cls-13" d="M839.43,513.53s-.85-76.81,75.4-57.38c82.07,20.9,76.72,29.88,136.55,22.53l9.36,34.85Z"/><path class="cls-1" d="M845.89,513.53s11.2-67.51,71.73-47.75,83.62,32.09,134.19,17.48"/><path class="cls-1" d="M859,513.66s8.4-54.1,63.24-35.21,75.22,28.05,132.74,15.6"/><path class="cls-1" d="M870.82,513.66s6.1-39.11,57-23.1,61.6,23.1,130.1,13.45"/><path class="cls-1" d="M883.94,513.66s14.17-32.76,78.2,0"/><path class="cls-13" d="M839.43,513.4S840.27,436.59,764,456C682,476.93,687.32,486,627.49,478.6l-9.38,34.8Z"/><path class="cls-1" d="M833,513.4s-11.2-67.51-71.73-47.75-83.62,32.09-134.18,17.48"/><path class="cls-1" d="M819.84,513.53s-8.4-54.1-63.24-35.21-75.22,28.05-132.74,15.6"/><path class="cls-1" d="M808,513.53s-6.1-39.11-57-23.1-61.61,23.1-130.11,13.45"/><path class="cls-1" d="M794.91,513.53s-14.17-32.76-78.2,0"/><path class="cls-14" d="M1071.83,513.53H852.9l-13.47-7.39L826,513.53H607a4.9,4.9,0,1,0,0,9.79H821.59c.66.64,1.16,1.11,1.26,1.19,9.33,7,25.73,6.39,34.67-1.19h214.31a4.9,4.9,0,1,0,0-9.79Z"/><path class="cls-15" d="M839.43,506.14,826,513.53s12.4,17.21,26.95,0Z"/><path class="cls-3" d="M874.33,468s14.07,6.16,15.38,25.92c0,0,5.25-5.92,5-10.66,0,0,7.35,2.38,9.18,7.22,0,0,2-18-14.77-27.73C889.11,462.75,880.48,463.68,874.33,468Z"/><path class="cls-6" d="M548.07,132.48l-13-3-76.25-17.88-15.29,65.2c77.91,40,165.47,38.8,165.47,38.8l15.29-65.2Z"/><polygon class="cls-10" points="619.6 170.46 624.31 150.36 548.07 132.48 535.09 129.44 458.84 111.56 454.03 132.06 530.22 171.29 619.6 170.46"/><polygon class="cls-9" points="605.97 211.45 614.82 172.34 533.9 174.58 609.81 177.53 605.97 211.45"/><polygon class="cls-6" points="551.97 86.63 391.15 95.69 531.05 167.71 692 166.23 551.97 86.63"/><polygon class="cls-9" points="553.88 91.89 679.33 163.24 533.39 163.29 660.17 157.91 553.88 91.89"/><path class="cls-8" d="M479.12,141s-17.88-47.86,72.32-54.35L391.15,95.69Z"/><polyline class="cls-1" points="553.88 91.89 679.33 163.24 533.39 163.29"/><path class="cls-8" d="M549.86,129.77a1.16,1.16,0,0,0,0-.18h0c-.5-1.39-3.35-3-7-3.87s-6.93-.67-8,.35h0a.81.81,0,0,0-.12.14.92.92,0,0,0-.23.42c-.36,1.5,2.82,3.52,7.08,4.52s8,.6,8.36-.9A1.12,1.12,0,0,0,549.86,129.77Z"/><path class="cls-3" d="M550.14,129.19c-.36,1.5-4.1,1.91-8.36.91s-7.44-3-7.09-4.53,4.1-1.9,8.36-.9S550.49,127.69,550.14,129.19Z"/><path class="cls-4" d="M542.06,128.88c-3.67-.86-6.51-2.47-7-3.87a1.2,1.2,0,0,0-.35.56c-.35,1.5,2.82,3.53,7.09,4.53s8,.59,8.36-.91a1.23,1.23,0,0,0-.07-.65C549,129.56,545.73,129.74,542.06,128.88Z"/><path class="cls-3" d="M703.35,211.35a21.7,21.7,0,0,0,12.59.62,8.27,8.27,0,0,0,.9-1.94,14.77,14.77,0,0,1-8.76-1.06,16.23,16.23,0,0,0,9,.26,11,11,0,0,0-.07-4.72c-5.38,3-11.51,0-11.51,0a15.33,15.33,0,0,0,11.35-.64c-.07-.28-.15-.54-.23-.79a18.79,18.79,0,0,1-15.49-1.82s7.4,3,14.74-.11a14.46,14.46,0,0,0-1.06-2s-5.69,5-18.65-1.51-24-3.21-24-3.21l-1.61,3.65a80.3,80.3,0,0,1,21.59,11.75c11.46,8.57,19.88,5.71,19.88,5.71a12.67,12.67,0,0,0,2.14-1.54A18.43,18.43,0,0,1,703.35,211.35Z"/><path class="cls-1" d="M677,195.52a35.76,35.76,0,0,1,20.26,4.29"/><path class="cls-1" d="M676.68,199a60.07,60.07,0,0,1,16.06,9c7.4,6,13.39,5.93,13.39,5.93"/><path class="cls-1" d="M677.85,197.53a39.7,39.7,0,0,1,10.69,4.13c2.61,1.49,4.84,3.53,7.3,5.26a15,15,0,0,0,8.66,2.76"/><path class="cls-1" d="M684.11,197.87s5.94.41,12.75,5.48a20.77,20.77,0,0,0,14,4.1"/><path class="cls-3" d="M542.79,126.35a2.12,2.12,0,0,1,.48-.37,4.76,4.76,0,0,1,2.12-.42,72.21,72.21,0,0,1,29.8,5.22A73.55,73.55,0,0,1,588.78,138a124,124,0,0,1,17.73,15.19c5.54,5.51,11.6,10.5,17.62,15.46a134.72,134.72,0,0,0,45.67,25l-.87,3.71c-.14.58-17.41-6.92-18.27-7.36-19.79-10.05-36.32-25.47-52.48-40.43-9.06-8.38-19.41-16-31.54-19.28-7.9-2.11-16.17-2.52-24.31-2.47A1.55,1.55,0,0,1,542.79,126.35Z"/><path class="cls-3" d="M674.59,197a4.26,4.26,0,1,1-3.18-5.12A4.27,4.27,0,0,1,674.59,197Z"/><path class="cls-4" d="M673.22,192.82a4.24,4.24,0,0,1-5,5.39,4.32,4.32,0,0,1-1.81-1,4.25,4.25,0,1,0,6.84-4.44Z"/><polygon class="cls-1" points="1107.27 90.64 1106.76 161.89 998.54 89.86 1107.27 90.64"/><path class="cls-16" d="M909.9,62.09,1137,213.23l1.08-149.49Zm196.86,99.8-108.22-72,108.73.78Z"/><polygon class="cls-17" points="919.3 68.34 909.9 62.09 1138.05 63.74 1136.97 213.23 1130.93 209.21 1131.94 69.89 919.3 68.34"/><rect class="cls-12" x="1126.34" y="63.66" width="2.18" height="16.38" transform="translate(2254.33 151.76) rotate(-179.59)"/><rect class="cls-12" x="1112.39" y="63.56" width="2.18" height="16.38" transform="translate(2226.41 151.56) rotate(-179.59)"/><rect class="cls-12" x="1098.43" y="63.46" width="2.18" height="16.38" transform="translate(2198.5 151.16) rotate(-179.59)"/><rect class="cls-12" x="1084.47" y="63.36" width="2.18" height="16.38" transform="translate(2170.59 150.96) rotate(-179.59)"/><rect class="cls-12" x="1070.52" y="63.26" width="2.18" height="16.38" transform="translate(2142.67 150.8) rotate(-179.58)"/><rect class="cls-12" x="1056.56" y="63.16" width="2.18" height="16.38" transform="translate(2114.75 150.49) rotate(-179.58)"/><rect class="cls-12" x="1042.61" y="63.06" width="2.18" height="16.38" transform="translate(2086.84 150.19) rotate(-179.58)"/><rect class="cls-12" x="1028.65" y="62.96" width="2.18" height="16.38" transform="translate(2058.93 149.88) rotate(-179.58)"/><rect class="cls-12" x="1014.7" y="62.86" width="2.18" height="16.38" transform="translate(2031.02 149.58) rotate(-179.58)"/><rect class="cls-12" x="1000.74" y="62.75" width="2.18" height="16.38" transform="translate(2003.11 149.27) rotate(-179.58)"/><rect class="cls-12" x="986.78" y="62.65" width="2.18" height="16.38" transform="translate(1975.2 149.01) rotate(-179.58)"/><rect class="cls-12" x="972.83" y="62.55" width="2.18" height="16.38" transform="translate(1947.3 148.53) rotate(-179.59)"/><rect class="cls-12" x="958.87" y="62.45" width="2.18" height="16.38" transform="translate(1919.38 148.31) rotate(-179.58)"/><rect class="cls-12" x="944.92" y="62.35" width="2.18" height="16.38" transform="translate(1891.48 147.92) rotate(-179.59)"/><path class="cls-18" d="M1123.81,197.15,955.33,83.78a2.26,2.26,0,0,0-3,.38l-.18.2a2.25,2.25,0,0,0,.44,3.36L1121.29,200.9a2.25,2.25,0,0,0,3.29-.9h0A2.25,2.25,0,0,0,1123.81,197.15Z"/><line class="cls-1" x1="1120.21" y1="197.47" x2="956.08" y2="87.42"/><rect class="cls-6" x="1010.98" y="395.31" width="15.77" height="6.84" transform="matrix(0.33, 0.95, -0.95, 0.33, 1062.73, -694.5)"/><rect class="cls-19" x="1013.41" y="392.68" width="6.84" height="0.28" transform="translate(-72.56 354.46) rotate(-19.11)"/><rect class="cls-19" x="1014.09" y="394.65" width="6.84" height="0.28" transform="translate(-73.13 353.69) rotate(-19.05)"/><rect class="cls-19" x="1014.77" y="396.61" width="6.84" height="0.28" transform="translate(-73.74 354.04) rotate(-19.05)"/><rect class="cls-19" x="1015.45" y="398.58" width="6.84" height="0.28" transform="translate(-74.36 354.86) rotate(-19.07)"/><rect class="cls-19" x="1016.13" y="400.55" width="6.84" height="0.28" transform="translate(-74.95 354.7) rotate(-19.05)"/><rect class="cls-19" x="1016.81" y="402.52" width="6.84" height="0.28" transform="translate(-75.61 356.5) rotate(-19.13)"/><rect class="cls-19" x="1017.49" y="404.49" width="6.84" height="0.28" transform="translate(-76.17 355.73) rotate(-19.07)"/><polygon class="cls-20" points="1113.11 357.79 1132.31 359.64 1118.26 372.7 1113.11 357.79"/><rect class="cls-3" x="1061" y="331.91" width="15.77" height="99.02" transform="translate(1080.08 -753.42) rotate(70.93)"/><polygon class="cls-3" points="1115.68 365.25 1113.11 357.79 1120.39 361.17 1118.41 364.3 1121.9 365.54 1118.26 372.7 1115.68 365.25"/><polygon class="cls-4" points="1022.1 397.61 1115.68 365.25 1118.41 364.3 1121.9 365.54 1118.26 372.7 1024.67 405.06 1022.1 397.61"/><path class="cls-5" d="M1113.47,360.5h0a1.2,1.2,0,0,0-1.51-.73l-89.33,30.89a1.2,1.2,0,0,0-.73,1.51h0a1.19,1.19,0,0,0,1.5.73L1112.74,362A1.2,1.2,0,0,0,1113.47,360.5Z"/><polygon class="cls-6" points="1128.19 359.25 1126.99 361.33 1129.29 362.44 1132.31 359.64 1128.19 359.25"/><path class="cls-14" d="M1018.21,407.29l-5.15-14.9-1,.33a7.9,7.9,0,0,0-4.88,10h0a7.89,7.89,0,0,0,10,4.87Z"/><g class="cls-21"><path class="cls-22" d="M1011.14,391.86a36.54,36.54,0,0,1,4,9.06,3.81,3.81,0,0,1-4.46,4.78,25.18,25.18,0,0,1-4.29-1.47l4.24,6.61,8.46-1.33,2.68-3-6-16Z"/></g><path class="cls-23" d="M1008.57,401.12c.73.26,1.76-.74,2.29-2.24s.38-2.92-.35-3.18-1.75.74-2.29,2.24S1007.84,400.86,1008.57,401.12Z"/><line class="cls-1" x1="1022.63" y1="390.66" x2="1111.96" y2="359.77"/><polygon class="cls-20" points="961.19 253.34 950.65 268.67 969 266.39 961.19 253.34"/><rect class="cls-14" x="998.46" y="187.61" width="15.21" height="95.49" transform="translate(691.53 -748.84) rotate(59.11)"/><polygon class="cls-14" points="965.1 259.86 961.19 253.34 959.17 260.81 962.7 261.3 961.46 264.64 969 266.39 965.1 259.86"/><polygon class="cls-22" points="1047.04 210.84 965.1 259.86 962.7 261.3 961.46 264.64 969 266.39 1050.95 217.37 1047.04 210.84"/><path class="cls-23" d="M963,255.29h0a1.14,1.14,0,0,1,.39-1.56l78.22-46.8a1.14,1.14,0,0,1,1.56.39h0a1.13,1.13,0,0,1-.39,1.56l-78.22,46.8A1.14,1.14,0,0,1,963,255.29Z"/><polygon class="cls-14" points="952.91 265.38 955.19 265.79 954.58 268.18 950.65 268.67 952.91 265.38"/><line class="cls-1" x1="1041.58" y1="206.93" x2="963.36" y2="253.73"/><polygon class="cls-20" points="536.13 359.46 518.22 354.44 526.3 371.07 536.13 359.46"/><rect class="cls-24" x="560.05" y="348.36" width="15.21" height="95.49" transform="translate(1236.76 218.77) rotate(130.25)"/><polygon class="cls-24" points="531.22 365.26 536.13 359.46 528.4 359.96 529.09 363.46 525.52 363.36 526.3 371.07 531.22 365.26"/><polygon class="cls-25" points="604.1 426.96 531.22 365.26 529.09 363.46 525.52 363.36 526.3 371.07 599.19 432.76 604.1 426.96"/><path class="cls-26" d="M534.86,361.77h0a1.14,1.14,0,0,1,1.61-.13L606,420.53a1.13,1.13,0,0,1,.13,1.6h0a1.14,1.14,0,0,1-1.6.14L535,363.37A1.14,1.14,0,0,1,534.86,361.77Z"/><polygon class="cls-24" points="522.06 355.51 522.41 357.81 519.95 358 518.22 354.44 522.06 355.51"/><line class="cls-1" x1="606.04" y1="420.53" x2="536.47" y2="361.64"/><path class="cls-12" d="M973.51,368.67l29.13-22.12a12.31,12.31,0,0,1,17.23,2.36h0a12.3,12.3,0,0,1-2.36,17.22l-29.14,22.12Z"/><path class="cls-13" d="M1011.63,370.59s-11.69-8.69-15.06-19.42L994,353.11l14.86,19.58Z"/><rect class="cls-14" x="978.32" y="358.39" width="25.73" height="24.58" transform="translate(2004.8 66.64) rotate(142.8)"/><path class="cls-22" d="M1008.86,372.69l-.4.26a28.14,28.14,0,0,1-35-4.28h0l14.86,19.58Z"/><polygon class="cls-23" points="975.77 368.81 993.95 354.85 1007.58 372.24 993.75 357.5 975.77 368.81"/><line class="cls-1" x1="975.77" y1="368.81" x2="1005.59" y2="347.19"/><path class="cls-27" d="M395.46,148.8c-31.68-11.37-40.34,12.81-41.92,18.57A40.54,40.54,0,0,0,344.46,178L347,180.6a25.38,25.38,0,0,1,8.14-11.33C382.17,178.3,395.46,148.8,395.46,148.8Z"/><path class="cls-28" d="M374.5,146.34a25.37,25.37,0,0,0-16.95,12C364.55,156.59,369.7,151.49,374.5,146.34Z"/><path class="cls-28" d="M393.52,148.16c-2.61,13.58-19,14.48-31.75,21.23a10.66,10.66,0,0,0-.86,1.25c23.14,3.46,34.55-21.84,34.55-21.84C394.8,148.56,394.16,148.36,393.52,148.16Z"/><path class="cls-1" d="M391,150.7a61.33,61.33,0,0,0-35,15.9"/><path class="cls-1" d="M364.14,153.66s.69,2.31-4.41,9.71a18.81,18.81,0,0,1,13.94,2.28"/><path class="cls-1" d="M374.05,148.59s-.92,5.34-3.47,8a15.41,15.41,0,0,1,10.36,3.69"/><path class="cls-1" d="M383.28,147.67a11.09,11.09,0,0,1-1.9,4.83,11.46,11.46,0,0,1,6.64,2.61"/><path class="cls-27" d="M838.06,66.76c2.63,33.55,28.23,31.53,34.13,30.61a40.54,40.54,0,0,0,13.44,3.91l1.29-3.41a25.34,25.34,0,0,1-13.67-2.77C870.42,66.78,838.06,66.76,838.06,66.76Z"/><path class="cls-28" d="M844.41,86.88a25.39,25.39,0,0,0,17.86,10.56C857.84,91.75,851.08,89.15,844.41,86.88Z"/><path class="cls-28" d="M838.27,68.79c13.46-3.19,21,11.37,32.39,20.25a10.33,10.33,0,0,0,1.49.27c-6.34-22.52-34.09-22.55-34.09-22.55C838.12,67.46,838.19,68.12,838.27,68.79Z"/><path class="cls-1" d="M841.64,70.09a61.34,61.34,0,0,0,28.87,25.43"/><path class="cls-1" d="M855.34,93.33s1.83-1.58,10.66,0a18.78,18.78,0,0,1-3.63-13.65"/><path class="cls-1" d="M846.65,86.37s5.25-1.35,8.73-.13a15.38,15.38,0,0,1-.88-10.95"/><path class="cls-1" d="M842,78.33a11.05,11.05,0,0,1,5.18-.25,11.45,11.45,0,0,1-.34-7.12"/><path class="cls-27" d="M556.44,552.13c2.63,33.55,28.23,31.53,34.13,30.61A40.54,40.54,0,0,0,604,586.65l1.29-3.41a25.34,25.34,0,0,1-13.67-2.77C588.8,552.15,556.44,552.13,556.44,552.13Z"/><path class="cls-28" d="M562.79,572.25a25.39,25.39,0,0,0,17.86,10.56C576.22,577.12,569.46,574.52,562.79,572.25Z"/><path class="cls-28" d="M556.65,554.16c13.46-3.19,21,11.37,32.39,20.25a10.33,10.33,0,0,0,1.49.27c-6.34-22.52-34.09-22.55-34.09-22.55C556.5,552.83,556.58,553.49,556.65,554.16Z"/><path class="cls-1" d="M560,555.45a61.33,61.33,0,0,0,28.87,25.44"/><path class="cls-1" d="M573.72,578.7s1.83-1.58,10.67,0a18.78,18.78,0,0,1-3.64-13.66"/><path class="cls-1" d="M565,571.74s5.25-1.35,8.73-.13a15.4,15.4,0,0,1-.88-11"/><path class="cls-1" d="M560.41,563.7a11.08,11.08,0,0,1,5.18-.25,11.47,11.47,0,0,1-.34-7.13"/><path class="cls-27" d="M1152.35,502.41c2-33.59-23.59-35.13-29.57-35a40.4,40.4,0,0,0-12.76-5.73l-1.75,3.19a25.42,25.42,0,0,1,13.15,4.64C1120.3,497.91,1152.35,502.41,1152.35,502.41Z"/><path class="cls-28" d="M1148.84,481.6a25.31,25.31,0,0,0-16.22-12.92C1136.22,474.92,1142.55,478.43,1148.84,481.6Z"/><path class="cls-28" d="M1152.42,500.37c-13.77,1.3-19.21-14.17-29.27-24.53a10.57,10.57,0,0,0-1.44-.48c3.16,23.18,30.64,27.05,30.64,27.05C1152.39,501.71,1152.4,501,1152.42,500.37Z"/><path class="cls-1" d="M1149.26,498.62a61.3,61.3,0,0,0-25.07-29.18"/><path class="cls-1" d="M1138.91,473.71s-2,1.3-10.55-1.52a18.83,18.83,0,0,1,1.71,14"/><path class="cls-1" d="M1146.56,481.8s-5.39.61-8.67-1.09a15.44,15.44,0,0,1-.64,11"/><path class="cls-1" d="M1150,490.41a11.11,11.11,0,0,1-5.16-.48,11.43,11.43,0,0,1-.66,7.1"/><path class="cls-4" d="M953.25,144.13l2.51,2.19a1.15,1.15,0,0,0,1.35.12l2.87-1.71a1.16,1.16,0,0,1,1.65,1.45l-1.31,3.06a1.17,1.17,0,0,0,.31,1.33l2.51,2.19a1.16,1.16,0,0,1-.87,2l-3.32-.29a1.15,1.15,0,0,0-1.17.69l-1.31,3.07a1.16,1.16,0,0,1-2.19-.2l-.74-3.25a1.14,1.14,0,0,0-1-.89l-3.32-.3a1.16,1.16,0,0,1-.49-2.15l2.86-1.71a1.14,1.14,0,0,0,.53-1.25l-.74-3.24A1.16,1.16,0,0,1,953.25,144.13Z"/><path class="cls-4" d="M539.83,294.33l2.5,2.19a1.16,1.16,0,0,0,1.36.12l2.86-1.7a1.15,1.15,0,0,1,1.66,1.44l-1.31,3.07a1.14,1.14,0,0,0,.3,1.32l2.51,2.2a1.16,1.16,0,0,1-.87,2l-3.31-.3a1.17,1.17,0,0,0-1.17.7l-1.31,3.06a1.16,1.16,0,0,1-2.19-.19l-.74-3.25a1.18,1.18,0,0,0-1-.9l-3.32-.3a1.15,1.15,0,0,1-.49-2.14l2.86-1.71a1.16,1.16,0,0,0,.54-1.25l-.74-3.25A1.16,1.16,0,0,1,539.83,294.33Z"/><path class="cls-4" d="M1154.11,559.06l-1.45,3a1.14,1.14,0,0,0,.24,1.34l2.4,2.3a1.16,1.16,0,0,1-1,2l-3.3-.45a1.15,1.15,0,0,0-1.2.64l-1.45,3a1.16,1.16,0,0,1-2.18-.3l-.59-3.27a1.16,1.16,0,0,0-1-.95l-3.3-.45a1.15,1.15,0,0,1-.39-2.16l2.94-1.58a1.15,1.15,0,0,0,.59-1.22l-.59-3.28a1.16,1.16,0,0,1,1.94-1l2.4,2.3a1.15,1.15,0,0,0,1.35.19l2.94-1.58A1.16,1.16,0,0,1,1154.11,559.06Z"/><path class="cls-8" d="M686.19,417.72a2.3,2.3,0,1,1-2.3-2.3A2.3,2.3,0,0,1,686.19,417.72Z"/><path class="cls-8" d="M518.05,241.08a2.3,2.3,0,1,1-2.29-2.3A2.3,2.3,0,0,1,518.05,241.08Z"/><path class="cls-8" d="M931.32,326a2.29,2.29,0,1,1-2.29-2.29A2.29,2.29,0,0,1,931.32,326Z"/><path class="cls-8" d="M1165,49.78a2.29,2.29,0,1,1-2.29-2.29A2.29,2.29,0,0,1,1165,49.78Z"/><path class="cls-8" d="M586.54,54.37a2.3,2.3,0,1,1-2.29-2.29A2.3,2.3,0,0,1,586.54,54.37Z"/><path class="cls-8" d="M732.3,156.17a2.3,2.3,0,1,1-2.3-2.3A2.3,2.3,0,0,1,732.3,156.17Z"/><path class="cls-8" d="M1159.5,417.72a2.3,2.3,0,1,1-2.29-2.3A2.3,2.3,0,0,1,1159.5,417.72Z"/><path class="cls-8" d="M436.29,575.92a2.3,2.3,0,1,1-2.3-2.29A2.3,2.3,0,0,1,436.29,575.92Z"/><rect class="cls-1" width="1200" height="628"/></g></svg>