<svg width="49" height="49" viewBox="0 0 49 49" fill="none" xmlns="http://www.w3.org/2000/svg">
<path d="M48.8281 24.4141C48.8281 37.8971 37.8971 48.8281 24.4141 48.8281C10.931 48.8281 0 37.8971 0 24.4141C0 10.931 10.931 0 24.4141 0C37.8971 0 48.8281 10.931 48.8281 24.4141Z" fill="#0A7BBA"/>
<path d="M39 26.3776V36.4437H33.1647V27.0533C33.1647 24.6946 32.3232 23.0839 30.2088 23.0839C28.5981 23.0839 27.6396 24.1697 27.2168 25.2195C27.0617 25.5936 27.0234 26.1142 27.0234 26.6412V36.4438H21.1861C21.1861 36.4438 21.2647 20.5382 21.1861 18.8916H27.0234V21.3797C27.0129 21.3988 26.9959 21.4177 26.9851 21.4368H27.0234V21.3797C27.7991 20.1856 29.1824 18.4791 32.2828 18.4791C36.1227 18.4791 39 20.9887 39 26.3776ZM15.0832 10.4316C13.0856 10.4316 11.7809 11.7428 11.7809 13.4641C11.7809 15.1491 13.0474 16.4962 15.0067 16.4962H15.0429C17.0786 16.4962 18.3451 15.1492 18.3451 13.4641C18.3068 11.7429 17.0786 10.4316 15.0832 10.4316ZM12.1273 36.4438H17.9604V18.8916H12.1273V36.4438Z" fill="#F2F2F2"/>
</svg>
